<svg xmlns="http://www.w3.org/2000/svg" viewBox="0 0 512 384" role="img" aria-labelledby="title desc">

<defs>
  <linearGradient id="bg" x1="0" y1="0" x2="1" y2="1">
    <stop offset="0" stop-color="#F7FBFF"/>
    <stop offset="0.52" stop-color="#EAF6FF"/>
    <stop offset="1" stop-color="#DDFCF6"/>
  </linearGradient>
  <linearGradient id="panel" x1="0" y1="0" x2="1" y2="1">
    <stop offset="0" stop-color="#FFFFFF"/>
    <stop offset="1" stop-color="#F1F7FB"/>
  </linearGradient>
  <linearGradient id="navyGrad" x1="0" y1="0" x2="1" y2="1">
    <stop offset="0" stop-color="#071B33"/>
    <stop offset="1" stop-color="#0B3B75"/>
  </linearGradient>
  <linearGradient id="tealGrad" x1="0" y1="0" x2="1" y2="1">
    <stop offset="0" stop-color="#14B8A6"/>
    <stop offset="1" stop-color="#25C48A"/>
  </linearGradient>
  <filter id="shadow" x="-20%" y="-20%" width="140%" height="140%">
    <feDropShadow dx="0" dy="18" stdDeviation="18" flood-color="#071B33" flood-opacity="0.16"/>
  </filter>
  <style>
    .title{font:700 26px -apple-system,BlinkMacSystemFont,'Segoe UI',sans-serif;fill:#071B33}
    .small{font:600 14px -apple-system,BlinkMacSystemFont,'Segoe UI',sans-serif;fill:#65758B}
    .mini{font:700 12px -apple-system,BlinkMacSystemFont,'Segoe UI',sans-serif;fill:#0B3B75;letter-spacing:.04em}
  </style>
</defs>

<title id="title">Gasfitería</title><desc id="desc">Visual premium para la categoría Gasfitería en OficiosPro.</desc>
<rect width="512" height="384" rx="36" fill="url(#bg)"/>
<circle cx="424" cy="70" r="82" fill="#14B8A6" opacity=".16"/>
<circle cx="86" cy="326" r="98" fill="#0B3B75" opacity=".08"/>
<rect x="42" y="42" width="428" height="300" rx="32" fill="url(#panel)" opacity=".9"/>
<g filter="url(#shadow)"><path d="M176 188h96c28 0 50 22 50 50v14" fill="none" stroke="#0B3B75" stroke-width="18" stroke-linecap="round"/><path d="M322 252v52" fill="none" stroke="#0B3B75" stroke-width="18" stroke-linecap="round"/><rect x="130" y="160" width="74" height="58" rx="16" fill="#14B8A6"/><rect x="298" y="292" width="58" height="74" rx="16" fill="#14B8A6"/><path d="M146 189h42M327 309v41" stroke="#fff" stroke-width="10" stroke-linecap="round"/></g>
<text x="48" y="72" class="mini">OFICIOSPRO</text>
<text x="48" y="318" class="title">Gasfitería</text>
<text x="48" y="344" class="small">Urgencias y reparaciones</text>
</svg>
