<svg xmlns="http://www.w3.org/2000/svg" viewBox="0 0 512 384" role="img" aria-labelledby="title desc">

<defs>
  <linearGradient id="bg" x1="0" y1="0" x2="1" y2="1">
    <stop offset="0" stop-color="#F7FBFF"/>
    <stop offset="0.52" stop-color="#EAF6FF"/>
    <stop offset="1" stop-color="#DDFCF6"/>
  </linearGradient>
  <linearGradient id="panel" x1="0" y1="0" x2="1" y2="1">
    <stop offset="0" stop-color="#FFFFFF"/>
    <stop offset="1" stop-color="#F1F7FB"/>
  </linearGradient>
  <linearGradient id="navyGrad" x1="0" y1="0" x2="1" y2="1">
    <stop offset="0" stop-color="#071B33"/>
    <stop offset="1" stop-color="#0B3B75"/>
  </linearGradient>
  <linearGradient id="tealGrad" x1="0" y1="0" x2="1" y2="1">
    <stop offset="0" stop-color="#14B8A6"/>
    <stop offset="1" stop-color="#25C48A"/>
  </linearGradient>
  <filter id="shadow" x="-20%" y="-20%" width="140%" height="140%">
    <feDropShadow dx="0" dy="18" stdDeviation="18" flood-color="#071B33" flood-opacity="0.16"/>
  </filter>
  <style>
    .title{font:700 26px -apple-system,BlinkMacSystemFont,'Segoe UI',sans-serif;fill:#071B33}
    .small{font:600 14px -apple-system,BlinkMacSystemFont,'Segoe UI',sans-serif;fill:#65758B}
    .mini{font:700 12px -apple-system,BlinkMacSystemFont,'Segoe UI',sans-serif;fill:#0B3B75;letter-spacing:.04em}
  </style>
</defs>

<title id="title">Empresas</title><desc id="desc">Visual premium para la categoría Empresas en OficiosPro.</desc>
<rect width="512" height="384" rx="36" fill="url(#bg)"/>
<circle cx="424" cy="70" r="82" fill="#0B3B75" opacity=".16"/>
<circle cx="86" cy="326" r="98" fill="#0B3B75" opacity=".08"/>
<rect x="42" y="42" width="428" height="300" rx="32" fill="url(#panel)" opacity=".9"/>
<g filter="url(#shadow)"><rect x="116" y="128" width="120" height="240" rx="18" fill="#0B3B75"/><rect x="260" y="168" width="136" height="200" rx="18" fill="#14B8A6"/><path d="M146 166h28M146 210h58M146 254h28M146 298h58M294 204h68M294 248h38M294 292h68M294 336h38" stroke="#fff" stroke-opacity=".78" stroke-width="14" stroke-linecap="round"/><rect x="184" y="314" width="36" height="54" rx="10" fill="#F6A623"/></g>
<text x="48" y="72" class="mini">OFICIOSPRO</text>
<text x="48" y="318" class="title">Empresas</text>
<text x="48" y="344" class="small">Operación y comunidades</text>
</svg>
